<?xml version="1.0" encoding="utf-8"?>
<svg version="1.1" xmlns:xlink="http://www.w3.org/1999/xlink" width="25px" height="37px" xmlns="http://www.w3.org/2000/svg">
  <g transform="matrix(1 0 0 1 -122 -39 )">
    <path d="M 8.2634765625 8.3193359375  L 15.59814453125 2.469921875  L 22.80849609375 8.24736328125  L 22.80849609375 36  L 8.2634765625 36  L 8.2634765625 8.3193359375  Z M 24 7.67158203124999  L 15.59814453125 0.919238281249999  L 7 7.7435546875  L 7 36  L 24 36  L 24 7.67158203124999  Z M 0.15673828125 18.19267578125  L 0.15673828125 16.97568359375  L 5.162109375 16.97568359375  L 5.162109375 18.19267578125  L 0.15673828125 18.19267578125  Z M 0.15673828125 21.76513671875  L 0.15673828125 20.54814453125  L 5.162109375 20.54814453125  L 5.162109375 21.76513671875  L 0.15673828125 21.76513671875  Z M 0.15673828125 25.344140625  L 0.15673828125 24.1271484375  L 5.162109375 24.1271484375  L 5.162109375 25.344140625  L 0.15673828125 25.344140625  Z M 0.15673828125 28.92314453125  L 0.15673828125 27.70615234375  L 5.162109375 27.70615234375  L 5.162109375 28.92314453125  L 0.15673828125 28.92314453125  Z M 0.15673828125 32.49560546875  L 0.15673828125 31.27861328125  L 5.162109375 31.27861328125  L 5.162109375 32.49560546875  L 0.15673828125 32.49560546875  Z " fill-rule="nonzero" fill="#ffffff" stroke="none" transform="matrix(1 0 0 1 122 39 )" />
  </g>
</svg>