<?xml version="1.0" encoding="utf-8"?>
<svg version="1.1" xmlns:xlink="http://www.w3.org/1999/xlink" width="51px" height="52px" xmlns="http://www.w3.org/2000/svg">
  <g transform="matrix(1 0 0 1 -112 -48 )">
    <path d="M 19.454296875 10  L 19.454296875 8  L 31.61767578125 8  L 31.61767578125 10  L 19.454296875 10  Z M 19.454296875 6  L 19.454296875 5  L 31.61767578125 5  L 31.61767578125 6  L 19.454296875 6  Z M 21.600390625 2.0412109375  L 21.600390625 0.82421875  L 23.746484375 0.82421875  L 23.746484375 2.0412109375  L 21.600390625 2.0412109375  Z M 24.45966796875 2.0412109375  L 24.45966796875 0.82421875  L 26.60576171875 0.82421875  L 26.60576171875 2.0412109375  L 24.45966796875 2.0412109375  Z M 27.32548828125 2.0412109375  L 27.32548828125 0.82421875  L 29.47158203125 0.82421875  L 29.47158203125 2.0412109375  L 27.32548828125 2.0412109375  Z M 19.454296875 13  L 19.454296875 12  L 31.61767578125 12  L 31.61767578125 13  L 19.454296875 13  Z M 19.454296875 17  L 19.454296875 16  L 31.61767578125 16  L 31.61767578125 17  L 19.454296875 17  Z M 19.454296875 20  L 19.454296875 19  L 31.61767578125 19  L 31.61767578125 20  L 19.454296875 20  Z M 19.454296875 24  L 19.454296875 23  L 31.61767578125 23  L 31.61767578125 24  L 19.454296875 24  Z M 35.90986328125 9.19267578125  L 35.90986328125 7.97568359375  L 40.915234375 7.97568359375  L 40.915234375 9.19267578125  L 35.90986328125 9.19267578125  Z M 35.90986328125 12.76513671875  L 35.90986328125 11.54814453125  L 40.915234375 11.54814453125  L 40.915234375 12.76513671875  L 35.90986328125 12.76513671875  Z M 35.90986328125 16.344140625  L 35.90986328125 15.1271484375  L 40.915234375 15.1271484375  L 40.915234375 16.344140625  L 35.90986328125 16.344140625  Z M 35.90986328125 19.92314453125  L 35.90986328125 18.70615234375  L 40.915234375 18.70615234375  L 40.915234375 19.92314453125  L 35.90986328125 19.92314453125  Z M 35.90986328125 23.49560546875  L 35.90986328125 22.27861328125  L 40.915234375 22.27861328125  L 40.915234375 23.49560546875  L 35.90986328125 23.49560546875  Z M 43.2837890625 44.243359375  C 38.57939453125 48.87578125  32.2916015625 51.42099609375  25.58505859375 51.42099609375  C 22.20234375 51.42099609375  18.9177734375 50.7732421875  15.82294921875 49.50390625  C 12.82626953125 48.26728515625  10.13056640625 46.50068359375  7.8208984375 44.243359375  C 3.04453125 39.584765625  0.414257812499997 33.355859375  0.414257812499997 26.708203125  L 1.6966796875 26.708203125  C 1.6966796875 39.63056640625  12.4140625 50.13857421875  25.58505859375 50.13857421875  C 38.68408203125 50.13857421875  49.342578125 39.6240234375  49.342578125 26.708203125  L 50.625 26.708203125  C 50.625 33.36240234375  48.0208984375 39.59130859375  43.2837890625 44.243359375  Z " fill-rule="nonzero" fill="#ffffff" stroke="none" transform="matrix(1 0 0 1 112 48 )" />
  </g>
</svg>