<?xml version="1.0" encoding="utf-8"?>
<svg version="1.1" xmlns:xlink="http://www.w3.org/1999/xlink" width="26px" height="26px" xmlns="http://www.w3.org/2000/svg">
  <g transform="matrix(1 0 0 1 -125 -74 )">
    <path d="M 6.9646484375 24.1451171875  C 6.8337890625 24.23671875  6.7029296875 24.28251953125  6.56552734375 24.28251953125  C 6.38232421875 24.28251953125  6.19912109375 24.1974609375  6.0748046875 24.04697265625  C 4.32783203125 21.83544921875  2.95380859375 19.237890625  1.97890625 16.32626953125  C 1.20029296875 14.003515625  0.676855468750002 11.4779296875  0.421679687499999 8.821484375  C -0.0166992187500021 4.29374999999999  0.467480468749997 0.989550781249989  0.487109374999999 0.845605468749994  C 0.539453124999998 0.505371093749993  0.860058593749997 0.269824218749996  1.20029296875 0.315624999999997  C 1.54052734375 0.367968749999989  1.77607421875 0.688574218749999  1.7302734375 1.02880859374999  C 1.72373046875 1.06152343749999  1.24609375 4.35263671874999  1.6779296875 8.72988281249999  C 2.0705078125 12.74072265625  3.32021484375 18.5181640625  7.0693359375 23.26181640625  C 7.28525390625 23.53662109375  7.239453125 23.92919921875  6.9646484375 24.1451171875  Z M 19.23271484375 24.0404296875  C 19.1083984375 24.1974609375  18.9251953125 24.28251953125  18.73544921875 24.28251953125  C 18.598046875 24.28251953125  18.46064453125 24.23671875  18.3494140625 24.1451171875  C 18.074609375 23.92919921875  18.02880859375 23.53662109375  18.2447265625 23.26181640625  C 22.000390625 18.505078125  23.25009765625 12.71455078125  23.6361328125 8.690625  C 24.06142578125 4.319921875  23.5837890625 1.05498046874999  23.57724609375 1.02226562499999  C 23.52490234375 0.682031249999987  23.76044921875 0.361425781249991  24.1072265625 0.309082031249993  C 24.4474609375 0.256738281249994  24.76806640625 0.492285156249992  24.82041015625 0.839062499999997  C 24.8400390625 0.976464843749994  25.32421875 4.28720703125  24.88583984375 8.81494140624999  C 24.6306640625 11.4779296875  24.1072265625 13.99697265625  23.32861328125 16.3197265625  C 22.3537109375 19.23134765625  20.97314453125 21.82890625  19.23271484375 24.0404296875  Z M 13.5599609375 24.79287109375  C 13.5599609375 25.13310546875  13.27861328125 25.40791015625  12.9318359375 25.40791015625  C 12.58505859375 25.40791015625  12.3037109375 25.1265625  12.3037109375 24.77978515625  C 12.3298828125 15.9009765625  12.34296875 2.5009765625  12.290625 1.59150390625  C 12.28408203125 1.5587890625  12.28408203125 1.51953125  12.28408203125 1.48681640625  C 12.28408203125 1.1400390625  12.5654296875 0.858691406249996  12.91220703125 0.858691406249996  C 13.07578125 0.858691406249996  13.23935546875 0.924121093749996  13.35712890625 1.04189453124999  C 13.54033203125 1.22509765624999  13.546875 1.40175781249999  13.55341796875 1.74853515624999  C 13.5599609375 1.91865234375  13.5599609375 2.17382812499999  13.56650390625 2.50751953125  C 13.573046875 3.11601562499999  13.57958984375 4.01240234375  13.57958984375 5.16396484374999  C 13.5861328125 7.10068359375  13.5861328125 9.79638671874999  13.57958984375 13.17255859375  C 13.573046875 18.91728515625  13.5599609375 24.733984375  13.5599609375 24.79287109375  Z M 12.91220703125 2.11494140625  C 12.6177734375 2.11494140625  12.369140625 1.91210937499999  12.3037109375 1.6373046875  C 12.3560546875 1.87939453125  12.5916015625 2.11494140625  12.91220703125 2.11494140625  Z " fill-rule="nonzero" fill="#ffffff" stroke="none" transform="matrix(1 0 0 1 125 74 )" />
  </g>
</svg>