<?xml version="1.0" encoding="utf-8"?>
<svg version="1.1" xmlns:xlink="http://www.w3.org/1999/xlink" width="41px" height="39px" xmlns="http://www.w3.org/2000/svg">
  <g transform="matrix(1 0 0 1 -117 -51 )">
    <path d="M 40.47568359375 38.29248046875  C 40.3820739677976 38.5325752318286  40.1510564516627 38.690913079966  39.893359375 38.6916015625  C 39.80830078125 38.6916015625  39.72978515625 38.678515625  39.6447265625 38.6392578125  C 29.02548828125 34.17041015625  19.21103515625 34.3994140625  12.8447265625 35.380859375  C 5.92880859375 36.44736328125  1.47958984375 38.6  1.4337890625 38.626171875  C 1.1197265625 38.783203125  0.733691406250001 38.65234375  0.57666015625 38.33173828125  C 0.419628906249999 38.0111328125  0.550488281249999 37.631640625  0.87109375 37.474609375  C 1.054296875 37.3830078125  5.51005859375 35.223828125  12.60263671875 34.124609375  C 16.76396484375 33.47685546875  20.96455078125 33.339453125  25.0931640625 33.705859375  C 30.25556640625 34.1638671875  35.31982421875 35.42666015625  40.13544921875 37.45498046875  C 40.46259765625 37.5923828125  40.6130859375 37.96533203125  40.47568359375 38.29248046875  Z M 28.76376953125 1.90048828125  L 28.76376953125 0.68349609375  L 38.00244140625 0.68349609375  L 38.00244140625 1.90048828125  L 28.76376953125 1.90048828125  Z " fill-rule="nonzero" fill="#ffffff" stroke="none" transform="matrix(1 0 0 1 117 51 )" />
  </g>
</svg>