<?xml version="1.0" encoding="utf-8"?>
<svg version="1.1" xmlns:xlink="http://www.w3.org/1999/xlink" width="21px" height="26px" xmlns="http://www.w3.org/2000/svg">
  <g transform="matrix(1 0 0 1 -79 -26 )">
    <path d="M 20.6922432294328 12.8384466019417  C 20.5342871742463 10.2535922330097  19.5865508431272 8.63805825242718  18.4808584568217 7.18407766990291  C 18.3229024016352 7.02252427184466  18.1649463464486 6.69941747572816  18.0069902912621 6.5378640776699  C 17.6910781808891 6.05320388349515  17.0592539601431 6.05320388349515  16.7433418497701 6.37631067961165  C 16.2694736842105 6.69941747572816  16.2694736842105 7.34563106796117  16.5853857945835 7.83029126213592  C 16.7433418497701 8.15339805825243  16.9012979049566 8.31495145631068  17.0592539601431 8.47650485436893  C 18.0069902912621 9.76893203883495  18.7967705671947 10.8998058252427  18.7967705671947 13  C 18.7967705671947 15.1001941747573  18.0069902912621 16.3926213592233  17.0592539601431 17.6850485436893  L 16.7433418497701 18.1697087378641  C 16.427429739397 18.6543689320388  16.5853857945835 19.3005825242718  16.9012979049566 19.6236893203884  C 17.0592539601431 19.7852427184466  17.2172100153296 19.7852427184466  17.3751660705161 19.7852427184466  C 17.6910781808891 19.7852427184466  18.0069902912621 19.6236893203884  18.1649463464486 19.3005825242718  L 18.4808584568217 18.8159223300971  C 19.4285947879407 17.3619417475728  20.6922432294328 15.584854368932  20.6922432294328 12.8384466019417  Z M 14 1.85281553398059  C 14.0580889115994 0.560388349514566  13.2683086356668 0.0757281553398067  12.6364844149208 0.0757281553398067  C 12.0046601941748 0.0757281553398067  11.3728359734287 0.398834951456312  10.5830556974962 1.20660194174757  L 5.21254982115483 6.86097087378641  L 2.84320899335718 6.86097087378641  C 1.26364844149208 6.86097087378641  0 8.15339805825243  0 9.9304854368932  L 0 15.9079611650485  C 0 17.5234951456311  1.26364844149208 18.9774757281553  2.84320899335718 18.9774757281553  L 5.21254982115483 18.9774757281553  L 10.5830556974962 24.7933980582524  C 11.3728359734287 25.6011650485437  12.0046601941748 25.9242718446602  12.6364844149208 25.9242718446602  C 13.2683086356668 25.9242718446602  14.0580889115994 25.4396116504854  14 23.9856310679612  L 14 1.85281553398059  Z M 12 2.49902912621359  L 12 23.6625242718447  C 12.0046601941748 23.6625242718447  12.0046601941748 23.5009708737864  11.8467041389882 23.3394174757282  L 6.16028615227389 17.3619417475728  C 6.00233009708738 17.2003883495146  5.68641798671436 17.0388349514563  5.52846193152785 17.0388349514563  L 2.68525293817067 17.0388349514563  C 2.21138477261114 17.0388349514563  1.73751660705161 16.5541747572816  1.73751660705161 16.0695145631068  L 1.73751660705161 10.0920388349515  C 1.73751660705161 9.6073786407767  2.21138477261114 9.12271844660194  2.68525293817067 9.12271844660194  L 5.52846193152785 9.12271844660194  C 5.84437404190087 9.12271844660194  6.00233009708738 8.96116504854369  6.16028615227389 8.79961165048544  L 11.8467041389882 2.8221359223301  L 12 2.49902912621359  Z " fill-rule="nonzero" fill="#555555" stroke="none" transform="matrix(1 0 0 1 79 26 )" />
  </g>
</svg>