<?xml version="1.0" encoding="utf-8"?>
<svg version="1.1" xmlns:xlink="http://www.w3.org/1999/xlink" width="8px" height="21px" xmlns="http://www.w3.org/2000/svg">
  <g transform="matrix(1 0 0 1 -98 -28 )">
    <path d="M 6.86735090152565 10.6579560551865  C 6.70402219140083 6.23518650996423  4.58074895977808 3.23402146142054  2.62080443828017 0.864680633622893  C 2.29414701803051 0.390812468063363  1.64083217753121 0.390812468063363  1.31417475728155 0.706724578436383  C 0.987517337031895 1.0226366888094  0.824188626907069 1.65446090955544  1.15084604715673 2.12832907511497  C 3.11079056865464 4.33971384772611  4.90740638002774 7.02496678589678  4.90740638002774 10.5  C 4.90740638002774 14.1329892692897  3.11079056865464 16.6602861522739  1.15084604715672 18.871670924885  C 0.824188626907069 19.3455390904446  0.824188626907069 19.8194072560041  1.31417475728155 20.2932754215636  C 1.47750346740637 20.4512314767501  1.6408321775312 20.6091875319366  1.96748959778085 20.6091875319366  C 2.29414701803051 20.6091875319366  2.45747572815534 20.4512314767501  2.62080443828016 20.2932754215636  C 4.74407766990291 17.923934593766  6.86735090152565 14.7648134900358  6.86735090152565 10.6579560551865  Z " fill-rule="nonzero" fill="#555555" stroke="none" transform="matrix(1 0 0 1 98 28 )" />
  </g>
</svg>