<?xml version="1.0" encoding="utf-8"?>
<svg version="1.1" xmlns:xlink="http://www.w3.org/1999/xlink" width="23px" height="28px" xmlns="http://www.w3.org/2000/svg">
  <g transform="matrix(1 0 0 1 -85 -32 )">
    <path d="M 9.924 27.874  C 9.504 27.902  9.07 27.93  8.65 27.93  C 5.78 27.93  2.966 27.048  0.614000000000001 25.382  C 0.362 25.2  0.222 24.934  0.194 24.64  C 0.18 24.36  0.278 24.08  0.488 23.87  C 0.824000000000001 23.534  1.37 23.492  1.762 23.772  C 2.504 24.304  3.316 24.738  4.156 25.088  C 5.584 25.676  7.096 25.97  8.65 25.97  C 10.19 25.97  11.702 25.676  13.144 25.088  C 14.6 24.5  15.93 23.618  17.092 22.47  C 18.226 21.35  19.108 20.02  19.71 18.536  C 20.298 17.108  20.592 15.596  20.592 14.042  C 20.592 12.502  20.298 10.99  19.71 9.548  C 19.122 8.09200000000001  18.24 6.762  17.092 5.60000000000001  C 15.944 4.452  14.628 3.57000000000001  13.158 2.982  C 11.73 2.39400000000001  10.218 2.10000000000001  8.664 2.10000000000001  C 7.138 2.072  5.626 2.352  4.17 2.94000000000001  C 3.288 3.304  2.49 3.738  1.776 4.256  C 1.37 4.536  0.838000000000003 4.494  0.502000000000003 4.158  C 0.292000000000003 3.94800000000001  0.194000000000003 3.66800000000001  0.222000000000003 3.37400000000001  C 0.250000000000004 3.08000000000001  0.390000000000003 2.828  0.628000000000004 2.66000000000001  C 3.316 0.769999999999996  6.62 -0.111999999999995  9.924 0.182000000000002  C 13.284 0.489999999999995  16.406 2.002  18.73 4.452  C 21.18 7.02800000000001  22.538 10.43  22.538 14.028  C 22.538 17.626  21.18 21.014  18.73 23.604  C 16.4113401541905 26.050493418047  13.2808094106607 27.5684773238921  9.924 27.874  Z " fill-rule="nonzero" fill="#ffffff" stroke="none" transform="matrix(1 0 0 1 85 32 )" />
  </g>
</svg>