<?xml version="1.0" encoding="utf-8"?>
<svg version="1.1" xmlns:xlink="http://www.w3.org/1999/xlink" width="19px" height="11px" xmlns="http://www.w3.org/2000/svg">
  <g transform="matrix(1 0 0 1 -80 -41 )">
    <path d="M 13.972 9.732  C 13.776 9.914  13.538 10.026  13.272 10.026  C 13.006 10.026  12.754 9.928  12.572 9.732  C 12.39 9.55000000000001  12.278 9.298  12.278 9.032  C 12.278 8.76599999999999  12.376 8.51400000000001  12.572 8.33199999999999  L 14.882 6  L 1.484 6  C 0.938 6.02199999999999  0.49 5.574  0.49 5.02800000000001  C 0.49 4.482  0.938 4.03400000000001  1.484 4  L 14.882 4  L 12.572 1.724  C 12.39 1.542  12.278 1.28999999999999  12.278 1.024  C 12.278 0.757999999999996  12.376 0.506  12.572 0.323999999999998  C 12.964 -0.0679999999999978  13.594 -0.0679999999999978  13.972 0.323999999999998  L 17.976 4.328  C 18.158 4.51000000000001  18.27 4.762  18.27 5.02800000000001  C 18.27 5.294  18.172 5.54599999999999  17.976 5.72800000000001  L 13.972 9.732  Z " fill-rule="nonzero" fill="#ffffff" stroke="none" transform="matrix(1 0 0 1 80 41 )" />
  </g>
</svg>