<?xml version="1.0" encoding="utf-8"?>
<svg version="1.1" xmlns:xlink="http://www.w3.org/1999/xlink" width="29px" height="29px" xmlns="http://www.w3.org/2000/svg">
  <g transform="matrix(1 0 0 1 -77 -20 )">
    <path d="M 28.3481178977273 14.4711647727273  C 28.3481178977273 6.82262073863636  22.1471022727273 0.623046875  14.5 0.623046875  C 6.85181640625 0.623046875  0.651882102272728 6.82262073863636  0.651882102272728 14.4711647727273  C 0.651882102272728 22.1197088068182  6.85145596590909 28.3192826704545  14.5 28.3192826704545  C 22.1485440340909 28.3192826704545  28.3481178977273 22.1197088068182  28.3481178977273 14.4711647727273  Z M 14.5 26.6580131392045  C 7.76949751420455 26.6580131392045  2.31351207386364 21.2020276988636  2.31351207386364 14.4715252130682  C 2.31351207386364 7.74102272727273  7.76841619318182 2.28467684659091  14.5 2.28467684659091  C 21.2315838068182 2.28467684659091  26.6864879261364 7.74066228693182  26.6864879261364 14.4711647727273  C 26.6864879261364 21.2016672585227  21.2294211647727 26.6576526988636  14.5 26.6576526988636  Z " fill-rule="nonzero" fill="#ffffff" stroke="none" transform="matrix(1 0 0 1 77 20 )" />
  </g>
</svg>