<?xml version="1.0" encoding="utf-8"?>
<svg version="1.1" xmlns:xlink="http://www.w3.org/1999/xlink" width="11px" height="11px" xmlns="http://www.w3.org/2000/svg">
  <g transform="matrix(1 0 0 1 -84 -27 )">
    <path d="M 10.3002001953125 1.78658691406249  C 10.2999929766812 1.37173495453038  9.96385082734817 1.03542456588342  9.5489990234375 1.035009765625  C 9.13370677991239 1.035009765625  8.7970458984375 1.3716706470999  8.7970458984375 1.786962890625  L 8.7970458984375 8.569580078125  L 2.12458984375 8.569580078125  C 1.64612497985578 8.57040568237803  1.25828386664955 8.95774266935391  1.2568359375 9.43620605468749  C 1.25828106554542 9.91423049412428  1.64543747462572 10.3013869032046  2.1234619140625 10.30283203125  L 9.36138671875 10.30283203125  C 9.42875718616779 10.3027927250292  9.49589001594599 10.2948427846608  9.56140624999999 10.2791455078125  C 9.97155051027065 10.2719668887581  10.300263012997 9.93739945595779  10.3002001953125 9.5271923828125  L 10.3002001953125 1.78658691406249  Z " fill-rule="nonzero" fill="#ffffff" stroke="none" transform="matrix(1 0 0 1 84 27 )" />
  </g>
</svg>