<?xml version="1.0" encoding="utf-8"?>
<svg version="1.1" xmlns:xlink="http://www.w3.org/1999/xlink" width="27px" height="27px" xmlns="http://www.w3.org/2000/svg">
  <g transform="matrix(1 0 0 1 -79 -32 )">
    <path d="M 26.9055 13.4595  C 26.9055 6.048  20.9115 0.0675  13.5 0.0675  C 6.102 0.0675  0.0945 6.0615  0.0945 13.473  C 0.0945 20.8845  6.102 26.865  13.5 26.865  C 20.898 26.865  26.9055 20.871  26.9055 13.4595  Z M 24.9345 13.4595  C 24.9345 19.7775  19.818 24.894  13.5 24.894  C 7.182 24.894  2.0655 19.7775  2.0655 13.4595  C 2.0655 7.1415  7.182 2.025  13.5 2.025  C 19.818 2.025  24.9345 7.1415  24.9345 13.4595  Z " fill-rule="nonzero" fill="#222222" stroke="none" transform="matrix(1 0 0 1 79 32 )" />
  </g>
</svg>