<?xml version="1.0" encoding="utf-8"?>
<svg version="1.1" xmlns:xlink="http://www.w3.org/1999/xlink" width="16px" height="13px" xmlns="http://www.w3.org/2000/svg">
  <g transform="matrix(1 0 0 1 -85 -39 )">
    <path d="M 15.0196363636364 10.7813333333333  C 15.0196363636364 9.69727777777778  14.1214545454545 8.81905555555556  13.0436363636364 8.81905555555556  C 12.7396363636364 8.81905555555556  12.4356363636364 8.88766666666666  12.1730909090909 9.02488888888889  L 9.11927272727273 3.76927777777778  C 9.63054545454545 3.4125  9.976 2.82244444444444  9.976 2.15005555555555  C 9.976 1.066  9.09163636363636 0.187777777777776  8 0.187777777777776  C 6.90836363636364 0.187777777777776  6.024 1.066  6.024 2.15005555555555  C 6.024 2.82244444444444  6.36945454545454 3.4125  6.88072727272727 3.76927777777778  L 3.82690909090909 9.02488888888889  C 3.56436363636364 8.90138888888889  3.26036363636364 8.81905555555556  2.95636363636364 8.81905555555556  C 1.86472727272727 8.81905555555556  0.980363636363636 9.69727777777778  0.980363636363636 10.7813333333333  C 0.980363636363636 11.8653888888889  1.86472727272727 12.7436111111111  2.95636363636364 12.7436111111111  C 3.96509090909091 12.7436111111111  4.79418181818182 11.9888888888889  4.91854545454545 11.0146111111111  L 11.0814545454545 11.0146111111111  C 11.192 11.9888888888889  12.0349090909091 12.7436111111111  13.0436363636364 12.7436111111111  C 14.1352727272727 12.7436111111111  15.0196363636364 11.8653888888889  15.0196363636364 10.7813333333333  Z M 4.72509090909091 9.84822222222222  L 8 4.19466666666667  L 11.2887272727273 9.84822222222222  L 4.72509090909091 9.84822222222222  Z " fill-rule="nonzero" fill="#222222" stroke="none" transform="matrix(1 0 0 1 85 39 )" />
  </g>
</svg>