<?xml version="1.0" encoding="utf-8"?>
<svg version="1.1" xmlns:xlink="http://www.w3.org/1999/xlink" width="27px" height="27px" xmlns="http://www.w3.org/2000/svg">
  <g transform="matrix(1 0 0 1 -79 -502 )">
    <path d="M 6.85416665722656 0.812499999999999  C 3.51744629105871 0.812499999999999  0.812499985839842 3.51744630521886  0.812499985839842 6.85416667138672  C 0.812499985839842 10.1908870375546  3.51744629105871 12.8958333427734  6.85416665722656 12.8958333427734  L 11.3854166572266 12.8958333427734  C 12.2195967712235 12.8958333427734  12.8958333427734 12.2195967712235  12.8958333427734 11.3854166855469  L 12.8958333427734 6.85416665722656  C 12.8958333427734 3.51744629887915  10.1908870438943 0.8125  6.85416668554687 0.8125  Z M 11.0833333427734 6.85416665722656  L 11.0833333427734 11.0833333427734  L 6.85416665722656 11.0833333427734  C 4.51846243626777 11.0833333427734  2.62500002832031 9.18987093482598  2.62500002832031 6.85416668554688  C 2.62500002832031 4.51846243626777  4.51846243626777 2.62500002832031  6.85416668554687 2.62500002832031  C 9.18987093482598 2.62500002832031  11.0833333427734 4.51846243626777  11.0833333427734 6.85416668554688  Z M 15.6145833427734 12.8958333427734  L 20.1458333427734 12.8958333427734  C 23.4825536728005 12.8958333427734  26.1874999716797 10.1908870438943  26.1874999716797 6.85416668554687  C 26.1874999716797 3.51744632719946  23.4825536728005 0.812500028320311  20.1458333144531 0.812500028320311  C 16.8091129671655 0.812500028320311  14.1041666728674 3.51744630993891  14.1041666572266 6.85416665722656  L 14.1041666572266 11.3854166572266  C 14.1041666572266 12.2195967712235  14.7804032287765 12.8958333427734  15.6145833144531 12.8958333427734  Z M 15.9166666572266 11.0833333427734  L 15.9166666572266 6.85416665722656  C 15.9166666728674 4.51846241900723  17.8101290762338 2.62500002832032  20.1458333144531 2.62500002832032  C 22.4815375637322 2.62500002832032  24.3749999716797 4.51846243626777  24.3749999716797 6.85416668554688  C 24.3749999716797 9.18987093482598  22.4815375637322 11.0833333427734  20.1458333144531 11.0833333427734  L 15.9166666572266 11.0833333427734  Z M 20.1458333427734 14.1041666572266  L 15.6145833427734 14.1041666572266  C 14.7804032287765 14.1041666572266  14.1041666572266 14.7804032287765  14.1041666572266 15.6145833144531  L 14.1041666572266 20.1458333427734  C 14.1041666728674 23.4825536900611  16.8091129671655 26.1874999716797  20.1458333144531 26.1874999716797  C 23.4825536728005 26.1874999716797  26.1874999716797 23.4825536728005  26.1874999716797 20.1458333144531  C 26.1874999716797 16.8091129561057  23.4825536728005 14.1041666572266  20.1458333144531 14.1041666572266  Z M 20.1458333144531 24.375  C 17.810129065174 24.375  15.9166666572266 22.4815375920525  15.9166666572266 20.1458333427734  L 15.9166666572266 15.9166666572266  L 20.1458333427734 15.9166666572266  C 22.481537599873 15.9166666572266  24.3750000141602 17.8101290715137  24.3750000141602 20.1458333286133  C 24.3750000141602 22.4815375857128  22.481537599873 24.375  20.1458333427734 24.375  Z M 11.3854166572266 14.1041666572266  L 6.85416665722656 14.1041666572266  C 3.51744632719945 14.1041666572266  0.81250002832031 16.8091129561057  0.81250002832031 20.1458333144531  C 0.81250002832031 23.4825536728005  3.51744632719945 26.1874999716797  6.85416668554687 26.1874999716797  C 10.1908870438943 26.1874999716797  12.8958333427734 23.4825536728005  12.8958333427734 20.1458333144531  L 12.8958333427734 15.6145833427734  C 12.8958333427734 14.7804032287765  12.2195967712235 14.1041666572266  11.3854166855469 14.1041666572266  Z M 11.0833333427734 15.9166666572266  L 11.0833333427734 20.1458333427734  C 11.0833333427734 22.4815375637322  9.18987093482598 24.3749999716797  6.85416668554688 24.3749999716797  C 4.51846243626777 24.3749999716797  2.62500002832031 22.4815375637322  2.62500002832031 20.1458333144531  C 2.62500002832031 17.810129065174  4.51846243626777 15.9166666572266  6.85416668554688 15.9166666572266  L 11.0833333427734 15.9166666572266  Z " fill-rule="nonzero" fill="#ffffff" stroke="none" transform="matrix(1 0 0 1 79 502 )" />
  </g>
</svg>