<?xml version="1.0" encoding="utf-8"?>
<svg version="1.1" xmlns:xlink="http://www.w3.org/1999/xlink" width="23px" height="24px" xmlns="http://www.w3.org/2000/svg">
  <g transform="matrix(1 0 0 1 -78 -22 )">
    <path d="M 22 3.40909089950284  C 22.2812499903739 1.54512987411926  20.7642148389764 0.0340909090909091  18.8928571428571 0  L 4.10714285714286 0  C 2.23578516102362 0.0340909090909091  0.718750009626116 1.54512987411926  1 3.40909089950284  L 1 20.5909091004972  C 0.718750009626116 22.4548701258807  2.23578516102362 23.9659090909091  4.10714285714286 24  L 18.8928571428571 24  C 20.7642148389764 23.9659090909091  22.2812499903739 22.4548701258807  22 20.5909091004972  L 22 3.40909089950284  Z M 3 3.40909089950284  C 2.5669642953404 2.56227271768466  3.25696428571429 1.875  4.10714285714286 2  L 18.8928571428571 2  C 19.7430357142857 1.875  20.4330357046596 2.56227271768466  20 3.40909089950284  L 20 20.5909091004972  C 20.4330357046596 21.4377272823153  19.7430357142857 22.125  18.8928571428571 22  L 4.10714285714286 22  C 3.25696428571429 22.125  2.5669642953404 21.4377272823153  3 20.5909091004972  L 3 3.40909089950284  Z " fill-rule="nonzero" fill="#ffffff" stroke="none" transform="matrix(1 0 0 1 78 22 )" />
  </g>
</svg>