<?xml version="1.0" encoding="utf-8"?>
<svg version="1.1" xmlns:xlink="http://www.w3.org/1999/xlink" width="12px" height="10px" xmlns="http://www.w3.org/2000/svg">
  <g transform="matrix(1 0 0 1 -84 -29 )">
    <path d="M 8.0742 0.855625010986327  L 8.07284998945313 0.855625010986327  C 8.63191705367656 0.855803549961125  9.08503957968934 1.32795090882063  9.08503957968934 1.9103124614214  C 9.08503957968934 2.43724779699366  8.71168658949915 2.88333149782089  8.21054998945312 2.95515625  L 8.07284998945313 2.96500001098633  L 1.32285 2.96500001098633  C 1.31990420238284 2.9650267957419  1.316958306572 2.965040188311  1.31401239673318 2.965040188311  C 0.754824087529498 2.965040188311  0.301512396733177 2.49284051039817  0.301512396733177 1.910352688311  C 0.301512396733177 1.37922005565593  0.68067235814041 0.930952377032015  1.18650001054688 0.864062510986328  L 1.32420001054687 0.855625010986327  L 8.0742 0.855625010986327  Z M 1.32285 7.72796876098633  L 10.7728500105469 7.72796876098633  C 11.3319170747703 7.72814729996112  11.7850396007831 8.20029465882063  11.7850396007831 8.7826562114214  C 11.7850396007831 9.30959154699366  11.4116866105929 9.75567524782089  10.9105500105469 9.8275  L 10.7728500105469 9.83734376098633  L 1.32285 9.83734376098633  C 0.763782846137239 9.83716535395669  0.310660180312806 9.36501795641263  0.310660180312806 8.78265631047801  C 0.310660180312806 8.25572088319297  0.684013296958517 7.80963713428065  1.18515 7.73781248901368  L 1.32285 7.72796876098633  Z " fill-rule="nonzero" fill="#ffffff" stroke="none" transform="matrix(1 0 0 1 84 29 )" />
  </g>
</svg>