<?xml version="1.0" encoding="utf-8"?>
<svg version="1.1" xmlns:xlink="http://www.w3.org/1999/xlink" width="25px" height="34px" xmlns="http://www.w3.org/2000/svg">
  <g transform="matrix(1 0 0 1 -81 -428 )">
    <path d="M 24.901960795324 20.9666666777344  C 24.901960795324 27.8233333554688  19.3210784423828 33.4333333554688  12.5 33.4333333222656  C 5.67892155761719 33.4333333222656  0.0980392046760109 27.8233333222656  0.0980392046760109 20.9666666777344  C 0.0980392046760109 16.4333333554688  2.52205882352941 12.2966666777344  6.46813726591222 10.0866666777344  C 7.99019608944164 6.06333335546875  7.20098041417739 2.55  7.2009803811466 2.55  L 6.75 0.51  L 8.72303920467601 1.24666667773437  C 12.1617647058824 2.49333335546875  15.4313725269991 6.46  17.1789215576172 10.2566666777344  C 17.8553921458525 8.78333335546875  18.25 7.65  18.25 7.59333332226563  L 18.9264705882353 5.66666667773438  L 20.223039204676 7.25333332226563  C 22.4779411764706 10.0866666445313  23.1544117647059 12.3533333222656  23.4926470588235 15.0166666777344  C 24.3946078541475 16.83  24.901960795324 18.87  24.901960795324 20.9666666777344  Z M 15.9387255012063 13.3733333222656  C 15.0367647058824 10.2  12.4436274399701 6.23333332226562  9.625 4.25  C 9.68137256002987 6.00666667773438  9.51225491297105 8.55666667773438  8.38480391055836 11.2766666777344  L 8.21568626349954 11.6733333222656  L 7.87745096938189 11.9  C 4.49509802820542 13.6566666777344  2.35294117647059 17.1133333222656  2.35294117647059 20.9666666777344  C 2.35294117647059 26.5766666777344  6.91911764705882 31.1666666777344  12.5 31.1666666777344  C 18.0808823529412 31.1666666777344  22.6470588235294 26.5766666777344  22.6470588235294 20.9666666777344  C 22.6470588235294 19.21  22.1960784423828 17.4533333554687  21.2941176470588 15.9233333222656  L 21.1813725600299 15.6966666777344  L 21.1813725600299 15.47  C 21.012254912971 13.6  20.6176470588235 12.07  19.5465686164407 10.3133333222656  C 19.1519607622932 11.2766666445312  18.6446078211167 12.4666666445312  17.9681372659122 13.6  L 16.6715686164407 16.0366666777344  L 15.9387255012063 13.3733333222656  Z " fill-rule="nonzero" fill="#ffffff" stroke="none" transform="matrix(1 0 0 1 81 428 )" />
  </g>
</svg>