<?xml version="1.0" encoding="utf-8"?>
<svg version="1.1" xmlns:xlink="http://www.w3.org/1999/xlink" width="28px" height="25px" xmlns="http://www.w3.org/2000/svg">
  <g transform="matrix(1 0 0 1 -10 -55 )">
    <path d="M 27 20.9395604461538  C 27.0065934 22.8039766529302  25.4951854375456 24.3153846153846  23.6307692307692 24  L 3.37582416923077 24  C 1.51140796245441 24.3153846153846  0 22.8039766529302  0 20.9395604461538  L 0 4.06043955384615  C 0 2.19602334706979  1.51140796245441 0.684615384615384  3.37582416923077 1  L 23.6307692307692 1  C 25.4951854375456 0.684615384615384  27.0065934 2.19602334706979  27 4.06043955384615  L 27 20.9395604461538  Z M 22.8543296769231 3.13208791538461  L 4.15226374615385 3.13208791538461  C 3.22005561968874 3.13208791538461  2.46435163846154 3.88779189661182  2.46435163846154 4.82  C 2.46435163846154 4.82  2.46435163846154 4.82  3 4.82  L 3 20.18  C 2.46435163846154 21.1122081033882  3.22005561968874 21.8679120846154  4.15226372307692 21.8679120846154  L 22.8543296769231 21.8679120846154  C 23.7865377803113 21.8679120846154  24.5422417615385 21.1122081033882  24 20.18  L 24 4.82  C 24.5422417615385 3.88779189661181  23.7865377803113 3.13208791538461  22.8543296769231 3.13208791538461  Z " fill-rule="nonzero" fill="#f59a23" stroke="none" transform="matrix(1 0 0 1 10 55 )" />
  </g>
</svg>