<?xml version="1.0" encoding="utf-8"?>
<svg version="1.1" xmlns:xlink="http://www.w3.org/1999/xlink" width="31px" height="27px" xmlns="http://www.w3.org/2000/svg">
  <g transform="matrix(1 0 0 1 -6 -441 )">
    <path d="M 5 17  L 21.0357142857143 17  L 26 17.2499999853516  L 26 4.12500001464844  L 5 4.12500001464844  L 5 17  Z M 12.7321428571429 10.4999999853516  C 12.3630952525112 10.6875  11.8095238239397 11.0624999853516  11.8095238239397 11.4375000146484  L 11.8095238239397 12.0000000146484  C 11.8095238239397 13.5  12.7321428571429 14.8125000146484  14.0238095382254 15.3750000146484  C 14.0238095382254 15.5625000292969  14.2083333621652 15.5625000292969  14.2083333189174 15.75  L 9.96428571428572 15.75  C 8.48809525251116 15.75  7.19642857142857 14.4374999853516  7.19642857142857 12.9375  C 7.19642857142857 11.8125  7.75 11.0624999853516  8.67261903320312 10.4999999853516  L 8.67261903320312 10.125  C 8.67261903320312 8.62500001464844  9.96428571428572 7.3125  11.4404761760603 7.3125  L 11.8095238239397 7.3125  C 12.1785714285714 6.56249998535156  13.1011905050223 5.99999998535156  14.0238095382255 5.99999998535156  C 14.5773809667969 5.99999998535156  14.9464285714286 6.1875  15.5 6.37500001464844  C 15.8690476046317 6.1875  16.4226190332031 6.00000002929687  16.9761904617746 5.99999998535156  C 18.0833333189174 5.99999998535156  18.8214285714286 6.56249998535156  19.375 7.50000001464844  L 19.7440476046317 7.50000001464844  C 21.2202380664063 7.50000001464844  22.5119047474888 8.81250002929687  22.5119047474888 10.3125000146484  L 22.5119047474888 10.6875  C 23.434523780692 11.25  23.9880952092634 12.0000000146484  23.9880952525112 13.1250000146484  C 23.9880952525112 14.625  22.6964285714286 15.9375000146484  21.220238109654 15.9375000146484  L 17.345238109654 15.9375000146484  C 16.2380952525112 15.9375000146484  15.5 15.1875  15.5 14.0625  C 15.5 12.9375  16.2380952525112 12.1874999853516  17.345238109654 12.1874999853516  C 17.8988095382254 12.1874999853516  18.2678571428571 11.8125  18.2678571428571 11.25  C 18.2678571428571 10.6875  17.8988095382255 10.3125000146484  17.345238109654 10.3125000146484  C 15.6845238239397 10.3125000146484  14.2083333621652 11.4375000146484  13.8392857142857 12.9375  C 13.654761890346 12.5625000146484  13.654761890346 12.375  13.654761890346 12.0000000146484  L 13.654761890346 11.6249999853516  L 13.654761890346 11.4375000146484  C 13.654761890346 10.8750000146484  13.2857142857143 10.5000000292969  12.7321428571429 10.4999999853516  Z M 30 21  L 17.345238109654 21  L 17.345238109654 22.8749999853516  L 21.0357142857143 22.8749999853516  L 21.0357142857143 26.6250000146484  L 9.96428571428572 26.6250000146484  L 9.96428571428572 22.8749999853516  L 13.654761890346 22.8749999853516  L 13.654761890346 21  L 1 21  L 1 0.374999985351562  L 30 0.374999985351562  L 30 21  Z " fill-rule="nonzero" fill="#f59a23" stroke="none" transform="matrix(1 0 0 1 6 441 )" />
  </g>
</svg>