<?xml version="1.0" encoding="utf-8"?>
<svg version="1.1" xmlns:xlink="http://www.w3.org/1999/xlink" width="31px" height="25px" xmlns="http://www.w3.org/2000/svg">
  <g transform="matrix(1 0 0 1 -6 -1018 )">
    <path d="M 30.87060546875 16.41357421875  C 30.87060546875 12.19921875  27.58935546875 8.75390625  23.43994140625 8.47705078125  C 23.38525390625 4.12255859375  19.84423828125 0.608886718750001  15.4794921875 0.608886718750001  C 11.11474609375 0.608886718750001  7.5703125 4.12255859375  7.51904296875 8.47705078125  C 3.36962890625 8.75390625  0.091796875 12.19921875  0.091796875 16.4169921875  C 0.091796875 20.7646484375  3.57470703125 24.2919921875  7.90185546875 24.3740234375  L 7.90185546875 24  L 22.9033203125 24  C 27.30224609375 24.380859375  30.87060546875 20.8125  30.87060546875 16.41357421875  Z M 23.6826171875 19.69482421875  L 23.6826171875 21.0107421875  C 23.6826171875 21.3115234375  23.4365234375 21.5576171875  23.1357421875 21.5576171875  L 7.8232421875 21.5576171875  C 7.5224609375 21.5576171875  7.2763671875 21.3115234375  7.2763671875 21.0107421875  L 7.2763671875 19.69482421875  C 7.2763671875 19.39404296875  7.5224609375 19.14794921875  7.8232421875 19  L 23.1357421875 19  C 23.4365234375 19.14794921875  23.6826171875 19.39404296875  23.6826171875 19.69482421875  Z " fill-rule="nonzero" fill="#f59a23" stroke="none" transform="matrix(1 0 0 1 6 1018 )" />
  </g>
</svg>