<?xml version="1.0" encoding="utf-8"?>
<svg version="1.1" xmlns:xlink="http://www.w3.org/1999/xlink" width="29px" height="14px" xmlns="http://www.w3.org/2000/svg">
  <g transform="matrix(1 0 0 1 -835 -704 )">
    <path d="M 13.953125 6.8828125  C 13.953125 10.65625  10.890625 13.71875  7.1171875 13.71875  C 3.34375 13.71875  0.28125 10.65625  0.28125 6.8828125  C 0.28125 3.109375  3.34375 0.046875  7.1171875 0.046875  L 11.62890625 0.046875  C 12.9140625 0.046875  13.953125 1.0859375  13.953125 2.37109375  L 13.953125 6.8828125  Z M 11.62890625 1.4140625  L 7.1171875 1.4140625  C 4.095703125 1.4140625  1.6484375 3.861328125  1.6484375 6.8828125  C 1.6484375 9.904296875  4.095703125 12.3515625  7.1171875 12.3515625  C 10.138671875 12.3515625  12.5859375 9.904296875  12.5859375 6.8828125  L 12.5859375 2.37109375  C 12.5859375 1.837890625  12.162109375 1.4140625  11.62890625 1.4140625  Z M 28.03515625 6.8828125  C 28.03515625 3.478515625  25.287109375 0.73046875  21.8828125 0.73046875  L 17.37109375 0.73046875  C 16.46875 0.73046875  15.73046875 1.46875  15.73046875 2.37109375  L 15.73046875 6.8828125  C 15.73046875 10.287109375  18.478515625 13.03515625  21.8828125 13.03515625  C 25.287109375 13.03515625  28.03515625 10.287109375  28.03515625 6.8828125  Z " fill-rule="nonzero" fill="#a2abba" stroke="none" transform="matrix(1 0 0 1 835 704 )" />
  </g>
</svg>