<?xml version="1.0" encoding="utf-8"?>
<svg version="1.1" xmlns:xlink="http://www.w3.org/1999/xlink" width="14px" height="14px" xmlns="http://www.w3.org/2000/svg">
  <g transform="matrix(1 0 0 1 -850 -704 )">
    <path d="M 13.71875 6.8828125  C 13.71875 10.65625  10.65625 13.71875  6.8828125 13.71875  C 3.109375 13.71875  0.046875 10.65625  0.046875 6.8828125  L 0.046875 2.37109375  C 0.046875 1.0859375  1.0859375 0.046875  2.37109375 0.046875  L 6.8828125 0.046875  C 10.65625 0.046875  13.71875 3.109375  13.71875 6.8828125  Z M 6.8828125 1.4140625  L 2.37109375 1.4140625  C 1.837890625 1.4140625  1.4140625 1.837890625  1.4140625 2.37109375  L 1.4140625 6.8828125  C 1.4140625 9.904296875  3.861328125 12.3515625  6.8828125 12.3515625  C 9.904296875 12.3515625  12.3515625 9.904296875  12.3515625 6.8828125  C 12.3515625 3.861328125  9.904296875 1.4140625  6.8828125 1.4140625  Z " fill-rule="nonzero" fill="#a2abba" stroke="none" transform="matrix(1 0 0 1 850 704 )" />
  </g>
</svg>