<?xml version="1.0" encoding="utf-8"?>
<svg version="1.1" xmlns:xlink="http://www.w3.org/1999/xlink" width="14px" height="14px" xmlns="http://www.w3.org/2000/svg">
  <g transform="matrix(1 0 0 1 -850 -689 )">
    <path d="M 13.71875 7.1171875  C 13.71875 10.890625  10.65625 13.953125  6.8828125 13.953125  L 2.37109375 13.953125  C 1.0859375 13.953125  0.046875 12.9140625  0.046875 11.62890625  L 0.046875 7.1171875  C 0.046875 3.34375  3.109375 0.28125  6.8828125 0.28125  C 10.65625 0.28125  13.71875 3.34375  13.71875 7.1171875  Z M 12.3515625 7.1171875  C 12.3515625 4.095703125  9.904296875 1.6484375  6.8828125 1.6484375  C 3.861328125 1.6484375  1.4140625 4.095703125  1.4140625 7.1171875  L 1.4140625 11.62890625  C 1.4140625 12.162109375  1.837890625 12.5859375  2.37109375 12.5859375  L 6.8828125 12.5859375  C 9.904296875 12.5859375  12.3515625 10.138671875  12.3515625 7.1171875  Z " fill-rule="nonzero" fill="#a2abba" stroke="none" transform="matrix(1 0 0 1 850 689 )" />
  </g>
</svg>