<?xml version="1.0" encoding="utf-8"?>
<svg version="1.1" xmlns:xlink="http://www.w3.org/1999/xlink" width="14px" height="14px" xmlns="http://www.w3.org/2000/svg">
  <g transform="matrix(1 0 0 1 -835 -689 )">
    <path d="M 13.953125 11.62890625  C 13.953125 12.9140625  12.9140625 13.953125  11.62890625 13.953125  L 7.1171875 13.953125  C 3.34375 13.953125  0.28125 10.890625  0.28125 7.1171875  C 0.28125 3.34375  3.34375 0.28125  7.1171875 0.28125  C 10.890625 0.28125  13.953125 3.34375  13.953125 7.1171875  L 13.953125 11.62890625  Z M 12.5859375 7.1171875  C 12.5859375 4.095703125  10.138671875 1.6484375  7.1171875 1.6484375  C 4.095703125 1.6484375  1.6484375 4.095703125  1.6484375 7.1171875  C 1.6484375 10.138671875  4.095703125 12.5859375  7.1171875 12.5859375  L 11.62890625 12.5859375  C 12.162109375 12.5859375  12.5859375 12.162109375  12.5859375 11.62890625  L 12.5859375 7.1171875  Z " fill-rule="nonzero" fill="#a2abba" stroke="none" transform="matrix(1 0 0 1 835 689 )" />
  </g>
</svg>