<?xml version="1.0" encoding="utf-8"?>
<svg version="1.1" xmlns:xlink="http://www.w3.org/1999/xlink" width="7px" height="12px" xmlns="http://www.w3.org/2000/svg">
  <g transform="matrix(1 0 0 1 -1538 -614 )">
    <path d="M 6.77609428335336 11.8267178807218  C 6.67275317257612 11.9240290272887  6.53496503655849 11.9735382042253  6.39898989633414 11.9735382042254  C 6.26120176031651 11.9735382042254  6.12522662009215 11.9240290272887  6.02007251352163 11.8267178807218  L 0.21302770683093 6.35851472271127  C 0.00271949368990458 6.16218523877641  0.00271949368990458 5.84122919234155  0.21302770683093 5.64489970840669  L 6.01825951772837 0.178403757702465  C 6.12341362429888 0.0793854038292256  6.25938876452324 0.0315834341989438  6.39717690054087 0.0315834341989438  C 6.53315204076523 0.0315834341989438  6.67094017678285 0.0810926111355636  6.77609428335337 0.178403757702465  C 6.98458948317308 0.374733241637324  6.98458948317308 0.693982080765846  6.77609428335337 0.892018772007042  L 1.34796684194711 6.00170720730634  L 6.77609428335336 11.1131028664173  C 6.98458948317308 11.3111395741637  6.98458948317308 11.630388396787  6.77609428335336 11.8267178807218  Z " fill-rule="nonzero" fill="#469afc" stroke="none" transform="matrix(1 0 0 1 1538 614 )" />
  </g>
</svg>