<?xml version="1.0" encoding="utf-8"?>
<svg version="1.1" xmlns:xlink="http://www.w3.org/1999/xlink" width="21px" height="21px" xmlns="http://www.w3.org/2000/svg">
  <g transform="matrix(1 0 0 1 -1339 -19 )">
    <path d="M 17.8567265625 0.498548650568182  C 19.3354815340909 0.498548650568182  20.52955078125 1.62172052556818  20.5288572443182 3.00673615056818  L 20.5288572443182 18.0358380681818  C 20.5288572443182 19.423359375  19.332796875 20.5440255681818  17.8567265625 20.5440255681818  L 3.15555575284091 20.5440255681818  C 1.67684552556818 20.5440255681818  0.483425071022727 19.4208313210227  0.483425071022727 18.0352116477273  L 0.483425071022727 3.00673615056818  C 0.483425071022727 1.61921484375  1.6795078125 0.498548650568182  3.15555575284091 0.498548650568182  L 17.8567489346591 0.498548650568182  Z M 19.0970614346591 17.2731264204545  L 19 17.2731264204545  L 19 3.76884375  C 19.0970390625 2.75388600852273  18.2095355113636 1.93036683238636  17.1092503551136 2  L 3.90303196022727 2  C 2.80471555397727 1.93036683238636  1.91524325284091 2.75938955965909  2 3.76884375  L 2 17.2731264204545  C 1.91524325284091 18.2886882102273  2.80274680397727 19.1121850142045  3.90303196022727 19  L 17.1092503551136 19  C 18.20691796875 19.1121850142045  19.0970614346591 18.2831622869318  19.0970614346591 17.2731264204545  Z M 7.06083984375 9.47088068181818  C 7.06083984375 9.56972710011176  7.14097069818369 9.64985795454546  7.23981711647727 9.64985795454546  L 10.9088512073864 9.64985795454546  C 11.0076976256799 9.64985795454546  11.0878284801136 9.56972710011176  11.0878284801136 9.47088068181818  L 11.0878284801136 6.85224183238636  C 11.0878284801136 6.45685866477273  11.4083544034091 6.13633274147727  11.8037375710227 6.13633274147727  C 12.1991431107955 6.13633274147727  12.5196466619318 6.45685866477273  12.5196466619318 6.85224183238636  L 12.5196466619318 14.1903100142045  C 12.5196466619318 14.5856931818182  12.1991431107955 14.9062191051136  11.8037375710227 14.9062191051136  C 11.4083544034091 14.9062191051136  11.0878284801136 14.5856931818182  11.0878284801136 14.1903100142045  L 11.0878284801136 11.2606534090909  C 11.0878284801136 11.1618069907973  11.0076976256799 11.0816761363636  10.9088512073864 11.0816761363636  L 7.23981711647727 11.0816761363636  C 7.14097069818369 11.0816761363636  7.06083984375 11.1618069907973  7.06083984375 11.2606534090909  L 7.06083984375 14.1903100142045  C 7.06083984375 14.5856931818182  6.74033629261363 14.9062191051136  6.34493075284091 14.9062191051136  C 5.94954758522727 14.9062191051136  5.62902166193182 14.5856931818182  5.62902166193182 14.1903100142045  L 5.62902166193182 6.85224183238636  C 5.62902166193182 6.45685866477273  5.94954758522727 6.13633274147727  6.34493075284091 6.13633274147727  C 6.74033629261363 6.13633274147727  7.06083984375 6.45685866477273  7.06083984375 6.85224183238636  L 7.06083984375 9.47088068181818  Z M 13.95146484375 9.35792365056818  C 13.95146484375 8.96254048295455  14.2719907670455 8.64201455965909  14.6673739346591 8.64201455965909  C 15.0627794744318 8.64201455965909  15.3832830255682 8.96254048295455  15.3832830255682 9.35792365056818  L 15.3832830255682 14.1903100142045  C 15.3832830255682 14.5856931818182  15.0627794744318 14.9062191051136  14.6673739346591 14.9062191051136  C 14.2719907670455 14.9062191051136  13.95146484375 14.5856931818182  13.95146484375 14.1903100142045  L 13.95146484375 9.35792365056818  Z M 13.95146484375 6.85224183238636  C 13.95146484375 6.45685866477273  14.2719907670455 6.13633274147727  14.6673739346591 6.13633274147727  C 15.0627794744318 6.13633274147727  15.3832830255682 6.45685866477273  15.3832830255682 6.85224183238636  L 15.3832830255682 7.38917365056818  C 15.3832830255682 7.78455681818182  15.0627794744318 8.10508274147727  14.6673739346591 8.10508274147727  C 14.2719907670455 8.10508274147727  13.95146484375 7.78455681818182  13.95146484375 7.38917365056818  L 13.95146484375 6.85224183238636  Z " fill-rule="nonzero" fill="#f59a23" stroke="none" transform="matrix(1 0 0 1 1339 19 )" />
  </g>
</svg>