<?xml version="1.0" encoding="utf-8"?>
<svg version="1.1" xmlns:xlink="http://www.w3.org/1999/xlink" width="27px" height="27px" xmlns="http://www.w3.org/2000/svg">
  <g transform="matrix(1 0 0 1 -1536 -14 )">
    <path d="M 24.7500000087891 20.8124999912109  C 24.6375 20.8124999912109  24.6375 20.8124999912109  24.7500000087891 20.8124999912109  C 24.975 20.3624999824219  25.2000000175781 20.0249999824219  25.4250000087891 19.575  C 25.5375000175781 19.4624999912109  25.5375000175781 19.3500000087891  25.5374999912109 19.2375  C 25.65 18.9  25.8749999912109 18.5625  25.9875 18.225  C 26.1000000087891 18.1124999912109  26.1000000087891 18.0000000087891  26.1000000087891 17.7749999912109  C 26.2125000175781 17.4374999912109  26.325 17.0999999912109  26.4375000087891 16.875  C 26.4375000087891 16.7624999912109  26.5500000175781 16.5375  26.5499999912109 16.4249999912109  C 26.6625 16.0874999912109  26.6625 15.7499999912109  26.7750000087891 15.4124999912109  C 26.7750000087891 15.2999999824219  26.8875000175781 15.0749999912109  26.8874999912109 14.9625000087891  C 27 14.5125  27 13.9500000087891  27 13.5  C 27 6.075  20.925 0  13.5 0  C 6.075 0  0 6.075  0 13.5  C 0 13.9500000087891  0 14.5125  0.112500008789059 14.9625000087891  C 0.112500008789059 15.0750000175781  0.112500008789059 15.3000000087891  0.224999991210934 15.4124999912109  C 0.224999991210934 15.7499999912109  0.337499999999997 16.0874999912109  0.337499999999997 16.4249999912109  C 0.337499999999997 16.5375  0.450000008789059 16.7624999912109  0.450000008789059 16.875  C 0.562500017578122 17.2125  0.674999999999997 17.55  0.787500008789059 17.7749999912109  C 0.787500008789059 17.8875  0.900000017578122 17.9999999824219  0.899999991210935 18.225  C 1.0125 18.5625  1.12499998242187 18.9  1.35 19.2375  C 1.35 19.3500000087891  1.46250000878906 19.4624999912109  1.46250000878906 19.575  C 1.6875 20.0250000087891  1.91250001757812 20.3625000087891  2.13750000878906 20.8124999912109  C 4.50000000878906 24.5249999912109  8.66250001757812 27  13.3874999912109 27  C 18.1124999648437 27  22.275 24.5249999912109  24.7500000087891 20.8124999912109  Z M 8.4375 11.3624999912109  C 8.4375 8.66249999121094  10.6874999912109 6.4125  13.3874999912109 6.4125  C 16.0874999912109 6.4125  18.3374999824219 8.66249999121094  18.3375000087891 11.3624999912109  C 18.3375000087891 14.0624999912109  16.0875000175781 16.3124999824219  13.3874999912109 16.3125000087891  C 10.6874999648438 16.3125000351562  8.4375 14.0625000175781  8.4375 11.3624999912109  Z M 13.3874999912109 25.3125  C 10.2374999824219 25.1999999912109  7.31249999121094 23.9625  5.17500000878906 21.9375  C 6.63750001757813 18.6750000087891  9.7875 16.5375  13.3874999912109 16.5375  C 16.9874999824219 16.5375  20.1374999912109 18.6750000087891  21.6 21.9375  C 19.4624999912109 23.9625  16.5375 25.3125  13.3874999912109 25.3125  Z " fill-rule="nonzero" fill="#ffffff" stroke="none" transform="matrix(1 0 0 1 1536 14 )" />
  </g>
</svg>