<?xml version="1.0" encoding="utf-8"?>
<svg version="1.1" xmlns:xlink="http://www.w3.org/1999/xlink" width="24px" height="24px" xmlns="http://www.w3.org/2000/svg">
  <g transform="matrix(1 0 0 1 -475 -147 )">
    <path d="M 13.3988486842105 18.3984375  C 12.24609375 18.8828536184211  11.0208059210526 19.1315378289474  9.75925164473684 19.1315378289474  C 8.49769736842105 19.1315378289474  7.275 18.8854440789474  6.12224506578947 18.3958470394737  C 5.00834703947369 17.9243832236842  4.01101973684211 17.2508634868421  3.15098684210526 16.3934210526316  C 2.29095394736842 15.5359786184211  1.62002467105263 14.5360608552632  1.15115131578947 13.4247532894737  C 0.664144736842105 12.2719983552632  0.41546052631579 11.0467105263158  0.41546052631579 9.78774671052632  C 0.41546052631579 8.52619243421053  0.66155427631579 7.30349506578947  1.15115131578947 6.15074013157895  C 1.62261513157895 5.03684210526316  2.29613486842105 4.03951480263158  3.15357730263158 3.17948190789474  C 4.0110197368421 2.3194490131579  5.0109375 1.64851973684211  6.12483552631579 1.17705592105263  C 7.27759046052632 0.690049342105265  8.50287828947369 0.441365131578949  9.76184210526316 0.441365131578949  C 11.0233963815789 0.441365131578949  12.24609375 0.687458881578949  13.3988486842105 1.17705592105263  C 14.5127467105263 1.64851973684211  15.5100740131579 2.32203947368421  16.3701069078947 3.17948190789474  C 17.2301398026316 4.03692434210526  17.9010690789474 5.03684210526316  18.3725328947368 6.15074013157895  C 18.8595394736842 7.30349506578947  19.1082236842105 8.52878289473684  19.1082236842105 9.78774671052632  C 19.1082236842105 11.0493009868421  18.8621299342105 12.2719983552632  18.3725328947368 13.4247532894737  C 17.9010690789474 14.5386513157895  17.2275493421053 15.5359786184211  16.3701069078947 16.3960115131579  C 15.5126644736842 17.2560444078947  14.5127467105263 17.9269736842105  13.3988486842105 18.3984375  Z M 14.9013157894737 4.64309210526316  C 13.5283717105263 3.27014802631579  11.7020970394737 2.51373355263158  9.75925164473684 2.51373355263158  C 7.81640625 2.51373355263158  5.99013157894737 3.27014802631579  4.6171875 4.64309210526316  C 3.24424342105263 6.01603618421052  2.48782894736842 7.84231085526316  2.48782894736842 9.78515625  C 2.48782894736842 11.7280016447368  3.24424342105263 13.5542763157895  4.6171875 14.9272203947368  C 5.99013157894737 16.3001644736842  7.81640625 17.0565789473684  9.75925164473684 17.0565789473684  C 11.7020970394737 17.0565789473684  13.5283717105263 16.3001644736842  14.9013157894737 14.9272203947368  C 16.2742598684211 13.5542763157895  17.0306743421053 11.7280016447368  17.0306743421053 9.78515625  C 17.0306743421053 7.84231085526316  16.2742598684211 6.01603618421053  14.9013157894737 4.64309210526316  Z M 23.2762746710526 23.2633223684211  C 23.07421875 23.460197368421  22.8099917763158 23.558634868421  22.5483552631579 23.5586348684211  C 22.2789473684211 23.5586348684211  22.0121299342105 23.4550164473684  21.8100740131579 23.2477796052632  L 17.0928453947368 18.44765625  C 16.6913240131579 18.0383634868421  16.6965049342105 17.3829769736842  17.1057976973684 16.9814555921053  C 17.5150904605263 16.5799342105263  18.1704769736842 16.5851151315789  18.5719983552632 16.9944078947368  L 23.2892269736842 21.7971217105263  C 23.6907483552632 22.2064144736842  23.6855674342105 22.8618009868421  23.2762746710526 23.2633223684211  Z " fill-rule="nonzero" fill="#ffffff" stroke="none" transform="matrix(1 0 0 1 475 147 )" />
  </g>
</svg>