<?xml version="1.0" encoding="utf-8"?>
<svg version="1.1" xmlns:xlink="http://www.w3.org/1999/xlink" width="13px" height="13px" xmlns="http://www.w3.org/2000/svg">
  <g transform="matrix(1 0 0 1 -114 -185 )">
    <path d="M 0.1625 6.5  C 0.1625 9.9944  3.0056 12.8375  6.5 12.8375  C 8.92068757310928 12.8468089450677  11.1327493893215 11.4686914019615  12.1914 9.29175  C 12.2243029229172 9.22480100125463  12.2414123236617 9.15119739117088  12.2414123236617 9.0766  C 12.2414123236617 8.80720249998089  12.0230225000191 8.58881267633835  11.753625 8.58881267633835  C 11.5676599615029 8.58881267633835  11.3978742267313 8.69455176222507  11.31585 8.86145  C 10.4202234116503 10.7037461775742  8.54844904013256 11.8701630048515  6.5 11.8625  C 3.54315 11.8625  1.1375 9.45685  1.1375 6.5  C 1.1375 3.54315  3.54315 1.1375  6.5 1.1375  C 9.45685 1.1375  11.8625 3.54315  11.8625 6.5  C 11.8625 6.76923881554251  12.0807611844575 6.9875  12.35 6.9875  C 12.6192388155425 6.9875  12.8375 6.76923881554251  12.8375 6.5  C 12.8375 3.0056  9.9944 0.1625  6.5 0.1625  C 3.0056 0.1625  0.1625 3.0056  0.1625 6.5  Z " fill-rule="nonzero" fill="#f59a23" stroke="none" transform="matrix(1 0 0 1 114 185 )" />
  </g>
</svg>