<?xml version="1.0" encoding="utf-8"?>
<svg version="1.1" xmlns:xlink="http://www.w3.org/1999/xlink" width="8px" height="7px" xmlns="http://www.w3.org/2000/svg">
  <g transform="matrix(1 0 0 1 -117 -188 )">
    <path d="M 6.83410909090909 3.98125  C 7.1202930067305 3.98125  7.35229090909091 3.75795201897811  7.35229090909091 3.4825  C 7.35229090909091 3.20704798102189  7.1202930067305 2.98375  6.83410909090909 2.98375  L 0.615927272727273 2.98375  C 0.329743378745593 2.98375  0.0977454763851859 3.20704798102189  0.0977454763851859 3.4825  C 0.0977454763851859 3.75795201897811  0.329743378745593 3.98125  0.615927294567004 3.98125  L 6.83410909090909 3.98125  Z M 0.615927272727273 1.420335  L 4.76138181818182 1.420335  C 5.04756573400323 1.420335  5.27956363636363 1.19703701897811  5.27956363636363 0.921585  C 5.27956363636363 0.646132981021892  5.04756573400323 0.422835  4.76138181818182 0.422835  L 0.615927272727272 0.422835  C 0.329743356905861 0.422835  0.0977454545454535 0.646132981021892  0.0977454545454535 0.921585  C 0.0977454545454535 1.19703701897811  0.329743356905861 1.420335  0.615927272727272 1.420335  Z M 3.37956363636364 5.544665  L 0.615927272727273 5.544665  C 0.329743356905862 5.544665  0.0977454545454548 5.76796298102189  0.0977454545454548 6.043415  C 0.0977454545454548 6.31886701897811  0.329743356905862 6.542165  0.615927272727273 6.542165  L 3.37956363636364 6.542165  C 3.66574755218505 6.542165  3.89774545454546 6.31886701897811  3.89774545454546 6.043415  C 3.89774545454546 5.76796298102189  3.66574755218505 5.544665  3.37956363636364 5.544665  Z " fill-rule="nonzero" fill="#f59a23" stroke="none" transform="matrix(1 0 0 1 117 188 )" />
  </g>
</svg>