<?xml version="1.0" encoding="utf-8"?>
<svg version="1.1" xmlns:xlink="http://www.w3.org/1999/xlink" width="14px" height="14px" xmlns="http://www.w3.org/2000/svg">
  <g transform="matrix(1 0 0 1 -22 -184 )">
    <path d="M 4.72287326388889 1.39756944444444  C 5.44900173611111 1.10286458333333  6.21462673611111 0.953993055555555  7 0.953993055555555  C 7.78537326388889 0.953993055555555  8.55099826388889 1.10286458333333  9.27560763888889 1.39605034722222  C 10.0245225694444 1.69986979166667  10.6974826388889 2.146484375  11.2747395833333 2.72374131944444  C 11.8519965277778 3.30099826388889  12.2986111111111 3.97395833333333  12.6024305555556 4.72287326388889  C 12.8971354166667 5.44900173611111  13.0460069444444 6.21462673611111  13.0460069444444 7  C 13.0460069444444 7.78537326388889  12.8971354166667 8.55099826388889  12.6039496527778 9.27560763888889  C 12.3001302083333 10.0245225694444  11.853515625 10.6974826388889  11.2762586805556 11.2747395833333  C 10.6990017361111 11.8519965277778  10.0260416666667 12.2986111111111  9.27712673611111 12.6024305555556  C 8.55099826388889 12.8971354166667  7.78537326388889 13.0460069444444  7 13.0460069444444  C 6.21462673611111 13.0460069444444  5.44900173611111 12.8971354166667  4.72439236111111 12.6039496527778  C 3.97547743055556 12.3001302083333  3.30251736111111 11.853515625  2.72526041666667 11.2762586805556  C 2.14800347222222 10.6990017361111  1.70138888888889 10.0260416666667  1.39756944444444 9.27712673611111  C 1.10286458333333 8.55099826388889  0.953993055555555 7.78537326388889  0.953993055555555 7  C 0.953993055555555 6.21462673611111  1.10286458333333 5.44900173611111  1.39605034722222 4.72439236111111  C 1.69986979166667 3.97547743055556  2.146484375 3.30251736111111  2.72374131944444 2.72526041666667  C 3.30099826388889 2.14800347222222  3.97395833333333 1.70138888888889  4.72287326388889 1.39756944444444  Z M 11.8125 2.1875  C 10.4832899305556 0.858289930555556  8.74240451388889 0.194444444444444  7 0.194444444444444  C 5.25759548611111 0.194444444444444  3.51671006944444 0.858289930555556  2.1875 2.1875  C -0.470920138888889 4.84592013888889  -0.470920138888889 9.15407986111111  2.1875 11.8125  C 3.51671006944444 13.1417100694444  5.25759548611111 13.8055555555556  7 13.8055555555556  C 8.74240451388889 13.8055555555556  10.4832899305556 13.1417100694444  11.8125 11.8125  C 14.4709201388889 9.15407986111111  14.4709201388889 4.84592013888889  11.8125 2.1875  Z " fill-rule="nonzero" fill="#f59a23" stroke="none" transform="matrix(1 0 0 1 22 184 )" />
  </g>
</svg>