<?xml version="1.0" encoding="utf-8"?>
<svg version="1.1" xmlns:xlink="http://www.w3.org/1999/xlink" width="14px" height="17px" xmlns="http://www.w3.org/2000/svg">
  <g transform="matrix(1 0 0 1 -1455 -22 )">
    <path d="M 13.7542705869932 16.3334705447635  C 14.0154016627956 16.1307025971284  14.0572219515414 15.7476460911107  13.8477045502534 15.4778371436867  L 11.0341553895693 11.8544829655828  C 11.1798268897804 11.7314987779772  11.3210743744721 11.6023322978252  11.4570659470016 11.4663218063767  C 12.0731968644426 10.850153088049  12.5569850665119 10.1324964157517  12.8950072476773 9.333259905511  C 13.2450915144636 8.50549410895269  13.4225819758235 7.62651167652029  13.4225819758235 6.72070149651603  C 13.4225819758235 5.8150047561233  13.2450725955448 4.93607904349665  12.8949883287585 4.1083888671875  C 12.5569661475929 3.30920909522803  12.0731779455236 2.59159022381755  11.4570659470016 1.97545932485218  C 10.8409539484798 1.35932842588682  10.1233539959882 0.875521286423123  9.32417420555316 0.537499123733085  C 8.49650292968749 0.187414856946816  7.61763395534206 0.00990547666805242  6.71195609691722 0.00990547666805242  C 5.80625935652449 0.00990547666805242  4.92733364389778 0.187414856946816  4.09962454866979 0.537499123733085  C 3.30044477671026 0.875521304898655  2.58280700485648 1.35932840741134  1.96669500633448 1.97545932485218  C 1.35056408889363 2.59157132337418  0.866775886824371 3.30919019478461  0.528734805215322 4.1083888671875  C 0.17865053842911 4.93609794394001  0.00114115815028981 5.8150047561233  0.00114115815028981 6.72070149651603  C 0.00114115815028981 7.62651167652029  0.17865053842911 8.50549410895269  0.528734805215322 9.333259905511  C 0.866756986380892 10.1324963972762  1.35054518845016 10.8501719884924  1.966676105891 11.4663218063767  C 2.582788104413 12.082471624261  3.30040697582353 12.5662976456926  4.09960564822632 12.9043387273015  C 4.92731472497894 13.2544229940879  5.80622153716217 13.4319323743666  6.71193719647385 13.4319323743666  C 7.61759613597974 13.4319323743666  8.49650292968749 13.2544040936444  9.32417420555316 12.9043198268581  C 9.56288263038425 12.8033423511402  9.79412314453123 12.6890927734375  10.0177634079392 12.5624786291174  L 12.8706750791807 16.2365200644003  C 13.0801735800253 16.5063290302999  13.4616608688767 16.5606840635558  13.7227541253167 16.3579539537585  L 13.7542705869932 16.3334705447635  Z M 12.2881970201647 6.72068259607266  C 12.2882159390837 9.79577875316721  9.78671195365291 12.2975474187078  6.71195609691722 12.2975474187078  C 3.637105719489 12.2975474187078  1.13550719489024 9.79577875316721  1.13550719489024 6.72068259607266  C 1.13550719489024 3.64583221864444  3.63708680057005 1.14425261296452  6.71195609691722 1.14425261296452  C 9.78671195365291 1.14425261296452  12.2881970201647 3.64583221864444  12.2881970201647 6.72068259607266  Z " fill-rule="nonzero" fill="#000000" stroke="none" transform="matrix(1 0 0 1 1455 22 )" />
  </g>
</svg>