<?xml version="1.0" encoding="utf-8"?>
<svg version="1.1" xmlns:xlink="http://www.w3.org/1999/xlink" width="18px" height="18px" xmlns="http://www.w3.org/2000/svg">
  <g transform="matrix(1 0 0 1 -43 -71 )">
    <path d="M 8.03920652631579 0.68590954385965  C 8.37338936842105 -0.205244701754385  9.48733219298246 -0.205244701754385  9.82151503508772 0.68590954385965  L 11.8266121052632 4.80749798245614  C 11.9380063859649 5.1416808245614  12.2721892280702 5.36446938596491  12.6063720877193 5.36446938596491  L 16.9507490701754 6.03283507017544  C 17.8419033157895 6.14422935087719  18.1760861754386 7.2581721754386  17.5077204736842 7.92653785964912  L 14.3886805964912 11.1569720350877  C 14.1658920350877 11.3797605964912  14.054497754386 11.7139434385965  14.054497754386 12.1595205789474  L 14.8342577192982 16.726686122807  C 14.945652 17.6178403684211  14.054497754386 18.2862060701754  13.3861320526316 17.8406289473684  L 9.48733219298246 15.7241375789474  C 9.15314935087719 15.6127432982456  8.81896650877193 15.6127432982456  8.48478366666667 15.7241375789474  L 4.58598378947368 17.8406289473684  C 3.8062238245614 18.2862060701754  2.91506956140351 17.6178403859649  3.13785814035088 16.726686122807  L 3.91761810526316 12.1595205789474  C 4.02901238596491 11.8253377368421  3.91761810526316 11.4911548947368  3.58343526315789 11.1569720350877  L 0.353001087719298 7.81514357894737  C -0.315364596491228 7.2581721754386  0.0188182456140351 6.14422935087719  0.90997249122807 6.03283507017544  L 5.25434949122807 5.36446938596491  C 5.58853233333333 5.36446938596491  5.9227151754386 5.14168082456141  6.03410945614035 4.80749798245614  L 8.03920652631579 0.68590954385965  Z " fill-rule="nonzero" fill="#ea9518" stroke="none" transform="matrix(1 0 0 1 43 71 )" />
  </g>
</svg>